<?xml version="1.0" standalone="no"?>
<!DOCTYPE svg PUBLIC "-//W3C//DTD SVG 1.1//EN" "http://www.w3.org/Graphics/SVG/1.1/DTD/svg11.dtd">
<svg width="100%" height="100%" viewBox="0 0 1650 600" version="1.1" xmlns="http://www.w3.org/2000/svg" xmlns:xlink="http://www.w3.org/1999/xlink" xml:space="preserve" style="fill-rule:evenodd;clip-rule:evenodd;stroke-linecap:round;stroke-linejoin:round;stroke-miterlimit:1.41421;">
    <g transform="matrix(1,0,0,1,-55.4481,-150)">
        <path d="M450.391,225L300.732,375" style="fill:none;stroke-width:4.17px;stroke:black;"/>
    </g>
    <g transform="matrix(1,0,0,1,-55.4481,-150)">
        <path d="M161.071,525.378L300.732,375" style="fill:none;stroke-width:4.17px;stroke:black;"/>
    </g>
    <g transform="matrix(1,0,0,1,-55.4481,-150)">
        <path d="M448.816,525.378L300,375" style="fill:none;stroke-width:4.17px;stroke:black;"/>
    </g>
    <g transform="matrix(1,0,0,1,-55.4481,-150)">
        <path d="M567.031,374.316L448.816,225" style="fill:none;stroke-width:4.17px;stroke:black;"/>
    </g>
    <g transform="matrix(1,0,0,1,-55.4481,-150)">
        <path d="M300.732,686.151L450.391,525.378" style="fill:none;stroke-width:4.17px;stroke:black;"/>
    </g>
    <g transform="matrix(1,0,0,1,-55.4481,-150)">
        <path d="M567.031,685.834L450.391,525.378" style="fill:none;stroke-width:4.17px;stroke:black;"/>
    </g>
    <g transform="matrix(1.3,7.34788e-17,7.34788e-17,1,-340.448,0)">
        <path d="M525,206.25C525,195.902 518.537,187.5 510.577,187.5L389.423,187.5C381.463,187.5 375,195.902 375,206.25L375,243.75C375,254.098 381.463,262.5 389.423,262.5L510.577,262.5C518.537,262.5 525,254.098 525,243.75L525,206.25Z" style="fill:white;stroke-width:3.59px;stroke:black;"/>
    </g>
    <g transform="matrix(1.2,4.89859e-17,4.89859e-17,1,-145.448,150)">
        <path d="M525,206.25C525,195.902 517.999,187.5 509.375,187.5L390.625,187.5C382.001,187.5 375,195.902 375,206.25L375,243.75C375,254.098 382.001,262.5 390.625,262.5L509.375,262.5C517.999,262.5 525,254.098 525,243.75L525,206.25Z" style="fill:white;stroke-width:3.77px;stroke:black;"/>
    </g>
    <g transform="matrix(1.4,9.79717e-17,9.79717e-17,1,-385.448,311.151)">
        <path d="M525,206.25C525,195.902 518.999,187.5 511.607,187.5L388.393,187.5C381.001,187.5 375,195.902 375,206.25L375,243.75C375,254.098 381.001,262.5 388.393,262.5L511.607,262.5C518.999,262.5 525,254.098 525,243.75L525,206.25Z" style="fill:white;stroke-width:3.42px;stroke:black;"/>
    </g>
    <g transform="matrix(1,1.32504e-31,1.04771e-31,1,60.8019,310.834)">
        <path d="M525,206.25C525,195.902 516.598,187.5 506.25,187.5L393.75,187.5C383.402,187.5 375,195.902 375,206.25L375,243.75C375,254.098 383.402,262.5 393.75,262.5L506.25,262.5C516.598,262.5 525,254.098 525,243.75L525,206.25Z" style="fill:white;stroke-width:4.17px;stroke:black;"/>
    </g>
    <g transform="matrix(0.9,-2.44929e-17,-2.44929e-17,1,-300,150)">
        <path d="M525,206.25C525,195.902 515.665,187.5 504.167,187.5L395.833,187.5C384.335,187.5 375,195.902 375,206.25L375,243.75C375,254.098 384.335,262.5 395.833,262.5L504.167,262.5C515.665,262.5 525,254.098 525,243.75L525,206.25Z" style="fill:white;stroke-width:4.38px;stroke:black;"/>
    </g>
    <g transform="matrix(1,0,0,1,-55.4481,-150)">
        <path d="M525,206.25C525,195.902 516.598,187.5 506.25,187.5L393.75,187.5C383.402,187.5 375,195.902 375,206.25L375,243.75C375,254.098 383.402,262.5 393.75,262.5L506.25,262.5C516.598,262.5 525,254.098 525,243.75L525,206.25Z" style="fill:white;stroke-width:4.17px;stroke:black;"/>
    </g>
    <g transform="matrix(0.8,-4.89859e-17,-4.89859e-17,1,150.802,-0.32959)">
        <path d="M525,206.25C525,195.902 514.498,187.5 501.563,187.5L398.438,187.5C385.502,187.5 375,195.902 375,206.25L375,243.75C375,254.098 385.502,262.5 398.438,262.5L501.563,262.5C514.498,262.5 525,254.098 525,243.75L525,206.25Z" style="fill:white;stroke-width:4.6px;stroke:black;"/>
    </g>
    <g transform="matrix(1,0,0,1,-128.905,6.9075)">
        <text x="290.058px" y="230.702px" style="font-family:'ArialMT';font-size:50px;fill:black;">bigger?</text>
    </g>
    <g transform="matrix(1,0,0,1,21.0953,156.908)">
        <text x="298.42px" y="230.702px" style="font-family:'ArialMT';font-size:50px;fill:black;">water?</text>
    </g>
    <g transform="matrix(1,0,0,1,-128.905,318.059)">
        <text x="277.534px" y="230.702px" style="font-family:'ArialMT';font-size:50px;fill:black;">elephant</text>
    </g>
    <g transform="matrix(1,0,0,1,137.345,317.741)">
        <text x="308.137px" y="230.702px" style="font-family:'ArialMT';font-size:50px;fill:black;">whale</text>
    </g>
    <g transform="matrix(1,0,0,1,-268.457,156.908)">
        <text x="324.799px" y="230.702px" style="font-family:'ArialMT';font-size:50px;fill:black;">gnat</text>
    </g>
    <g transform="matrix(1,0,0,1,21.0953,-143.092)">
        <text x="310.92px" y="230.702px" style="font-family:'ArialMT';font-size:50px;fill:black;">moo?</text>
    </g>
    <g transform="matrix(1,0,0,1,137.345,6.57791)">
        <text x="328.999px" y="230.702px" style="font-family:'ArialMT';font-size:50px;fill:black;">cow</text>
    </g>
    <g transform="matrix(1,0,0,1,189.393,92.0486)">
        <text x="517.964px" y="71.123px" style="font-family:'Menlo-Regular';font-size:50px;fill:black;">QDoes it moo?</text>
        <text x="517.964px" y="121.123px" style="font-family:'Menlo-Regular';font-size:50px;fill:black;">QIs it bigger than a breadbox?</text>
        <text x="517.964px" y="171.123px" style="font-family:'Menlo-Regular';font-size:50px;fill:black;">Agnat</text>
        <text x="517.964px" y="221.123px" style="font-family:'Menlo-Regular';font-size:50px;fill:black;">QDoes it live in water?</text>
        <text x="517.964px" y="271.123px" style="font-family:'Menlo-Regular';font-size:50px;fill:black;">Aelephant</text>
        <text x="517.964px" y="321.123px" style="font-family:'Menlo-Regular';font-size:50px;fill:black;">Awhale</text>
        <text x="517.964px" y="371.123px" style="font-family:'Menlo-Regular';font-size:50px;fill:black;">Acow</text>
    </g>
</svg>
